<?xml version="1.0" standalone="no"?>
<!DOCTYPE svg PUBLIC "-//W3C//DTD SVG 20010904//EN"
 "http://www.w3.org/TR/2001/REC-SVG-20010904/DTD/svg10.dtd">
<svg version="1.0" xmlns="http://www.w3.org/2000/svg"
 width="2048.000000pt" height="2048.000000pt" viewBox="0 0 2048.000000 2048.000000"
 preserveAspectRatio="xMidYMid meet">

<g transform="translate(0.000000,2048.000000) scale(0.100000,-0.100000)"
fill="#000000" stroke="none">
<path d="M10063 17390 c-315 -36 -612 -150 -1008 -390 -128 -77 -154 -95 -340
-234 -423 -315 -872 -776 -1186 -1216 -118 -165 -233 -332 -256 -370 -11 -19
-64 -107 -118 -195 -186 -305 -344 -590 -548 -985 -43 -85 -114 -222 -157
-305 -43 -82 -243 -478 -445 -880 -202 -401 -405 -800 -450 -885 -192 -361
-250 -502 -302 -732 -25 -114 -27 -139 -27 -343 0 -239 10 -314 64 -489 124
-404 323 -737 656 -1101 119 -129 373 -379 459 -450 33 -27 94 -79 135 -115
41 -37 109 -93 150 -126 108 -85 107 -81 20 -108 -30 -10 -125 -47 -210 -83
-826 -347 -1383 -640 -1780 -934 -258 -191 -539 -468 -719 -707 -108 -146
-231 -324 -231 -338 0 -2 -11 -21 -24 -42 -36 -58 -210 -407 -255 -512 -100
-236 -171 -458 -250 -775 -60 -246 -64 -265 -95 -445 -24 -141 -31 -187 -61
-430 -33 -272 -60 -800 -45 -880 15 -77 53 -136 114 -175 165 -106 368 -27
399 155 4 19 11 148 17 285 35 825 166 1525 382 2040 153 367 307 631 522 895
126 155 348 371 490 476 155 115 275 195 403 270 140 82 776 409 873 448 25
10 115 50 200 89 187 84 359 157 563 238 83 33 174 71 202 84 47 23 50 23 75
7 365 -246 644 -420 1045 -649 210 -121 934 -482 1037 -519 23 -8 46 -18 52
-22 15 -12 135 -62 147 -62 22 0 -16 42 -158 171 -388 356 -917 782 -1353
1091 -93 66 -588 435 -698 520 -593 462 -926 766 -1166 1064 -176 219 -353
510 -415 684 -69 193 -76 237 -76 455 0 172 3 212 22 285 56 219 159 404 325
582 224 240 687 530 1258 788 402 182 820 346 1135 445 83 26 204 64 270 85
276 87 721 186 1060 236 218 32 544 43 760 25 591 -49 1282 -230 2125 -558
412 -161 783 -334 1078 -504 636 -366 910 -652 1024 -1069 21 -76 23 -106 23
-295 0 -196 -2 -217 -28 -319 -74 -295 -223 -563 -476 -861 -297 -348 -638
-658 -1181 -1072 -274 -208 -384 -292 -442 -333 -79 -57 -662 -494 -788 -590
-343 -263 -967 -806 -949 -824 6 -6 117 42 424 184 239 110 768 379 960 488
98 56 441 266 550 337 44 29 114 74 155 100 41 26 103 70 136 96 34 27 65 49
69 49 3 0 37 -12 73 -26 37 -14 135 -52 217 -84 83 -32 182 -70 220 -85 39
-15 86 -34 105 -42 19 -8 44 -19 55 -24 202 -86 409 -176 481 -208 130 -58
452 -223 561 -287 51 -30 94 -54 96 -54 19 0 344 -212 487 -319 156 -116 445
-405 570 -572 148 -197 289 -443 398 -689 62 -141 151 -385 181 -500 13 -47
27 -96 32 -110 31 -90 108 -462 133 -645 8 -60 22 -161 31 -222 19 -137 41
-440 55 -746 11 -263 21 -300 96 -366 51 -45 138 -76 193 -68 88 11 166 71
210 159 31 61 31 62 31 227 0 558 -110 1341 -261 1858 -212 730 -563 1344
-1027 1801 -315 309 -673 550 -1262 846 -400 202 -1090 496 -1162 496 -43 0
-13 39 95 123 820 640 1333 1363 1423 2004 20 149 15 468 -11 583 -42 190
-147 449 -295 722 -46 84 -315 614 -598 1178 -283 564 -518 1030 -522 1035 -4
6 -43 78 -85 160 -70 134 -201 368 -370 660 -155 269 -458 703 -656 940 -659
788 -1444 1338 -2116 1481 -131 28 -386 40 -520 24z m589 -3215 c559 -53 1156
-194 1748 -412 199 -73 577 -234 691 -295 73 -38 136 -101 149 -147 28 -108
-64 -222 -178 -221 -38 0 -67 11 -262 100 -392 177 -962 369 -1378 465 -163
37 -509 97 -702 120 -174 22 -605 31 -766 16 -626 -57 -1237 -205 -1914 -464
-129 -49 -307 -122 -395 -162 -195 -88 -237 -96 -308 -61 -118 58 -141 198
-48 278 108 92 688 332 1186 490 483 153 971 255 1405 293 206 18 585 18 772
0z"/>
<path d="M7259 12051 c-195 -97 -499 -270 -638 -364 -83 -56 -249 -192 -299
-246 -191 -204 -265 -441 -222 -706 31 -195 150 -430 347 -687 118 -154 435
-478 613 -627 30 -25 84 -73 120 -106 57 -53 194 -164 425 -346 89 -70 431
-327 645 -484 598 -438 723 -536 1196 -937 130 -111 591 -563 599 -589 4 -10
40 -48 81 -84 64 -56 80 -65 113 -65 41 0 55 13 291 264 51 55 123 127 159
160 36 34 113 106 171 161 197 188 644 550 1090 882 69 51 150 112 180 135 30
24 118 88 195 143 131 94 198 143 435 319 180 134 525 414 675 549 141 126
444 433 528 535 101 121 248 344 302 457 131 270 158 557 72 760 -60 142 -212
321 -377 445 -151 113 -513 325 -717 421 l-103 48 0 -72 c-1 -374 -125 -1010
-300 -1537 -190 -572 -507 -1152 -885 -1621 -367 -455 -695 -742 -1040 -909
-231 -113 -387 -157 -595 -167 -351 -17 -679 92 -1030 345 -157 113 -248 193
-425 374 -309 314 -548 624 -770 998 -87 147 -290 552 -348 695 -170 417 -302
896 -361 1310 -16 116 -44 417 -49 522 l-2 62 -76 -38z"/>
<path d="M8056 12020 c-74 -22 -102 -84 -92 -204 26 -343 135 -605 335 -809
127 -130 252 -208 429 -267 221 -73 503 -52 729 55 111 52 202 115 284 195 65
63 89 109 89 167 0 55 -63 109 -276 235 -410 243 -927 481 -1284 591 -135 41
-175 48 -214 37z"/>
<path d="M12160 11957 c-535 -194 -853 -345 -1302 -619 -161 -98 -208 -141
-208 -190 0 -135 288 -352 565 -425 86 -22 120 -26 245 -26 125 0 158 4 244
27 184 50 310 122 454 260 100 96 153 168 215 291 78 156 126 330 142 520 8
92 -4 151 -39 192 -19 22 -33 27 -82 30 -52 3 -80 -4 -234 -60z"/>
</g>
</svg>
